<svg xmlns="http://www.w3.org/2000/svg" width="22" height="24" fill="none"><path fill="#675EF5" d="M18 6h-.42a4.14 4.14 0 0 0-.3-4.14 4.19 4.19 0 0 0-6.48-.58A4.19 4.19 0 0 0 4.02 6H3.6A3.6 3.6 0 0 0 0 9.6V12a1.2 1.2 0 0 0 1.2 1.2h1.2v7.2A3.6 3.6 0 0 0 6 24h9.6a3.6 3.6 0 0 0 3.6-3.6v-7.2h1.2a1.2 1.2 0 0 0 1.2-1.2V9.6A3.6 3.6 0 0 0 18 6ZM9.6 21.6H6a1.2 1.2 0 0 1-1.2-1.2v-7.2h4.8v8.4Zm0-10.8H2.4V9.6a1.2 1.2 0 0 1 1.2-1.2h6v2.4Zm0-4.8H7.8a1.8 1.8 0 1 1 1.8-1.8V6ZM12 4.2A1.8 1.8 0 1 1 13.8 6H12V4.2Zm4.8 16.2a1.2 1.2 0 0 1-1.2 1.2H12v-8.4h4.8v7.2Zm2.4-9.6H12V8.4h6a1.2 1.2 0 0 1 1.2 1.2v1.2Z"/></svg>