<svg xmlns="http://www.w3.org/2000/svg" width="22" height="22" fill="none"><path fill="#675EF5" d="M15.08 11.78A6.6 6.6 0 0 0 10.98 0a6.66 6.66 0 0 0-6.26 4.44 6.56 6.56 0 0 0 2.16 7.34 11.05 11.05 0 0 0-6.87 9 1.1 1.1 0 0 0 .98 1.21 1.12 1.12 0 0 0 1.23-.98 8.78 8.78 0 0 1 8.79-7.8 8.87 8.87 0 0 1 8.78 7.8 1.1 1.1 0 0 0 1.1.98h.13a1.1 1.1 0 0 0 .97-1.2 10.96 10.96 0 0 0-6.9-9.01Zm-4.1-.78A4.44 4.44 0 0 1 6.9 8.29a4.38 4.38 0 0 1 3.22-6 4.44 4.44 0 0 1 5.29 4.31 4.39 4.39 0 0 1-4.43 4.4Z"/></svg>