<svg width="24" height="18" viewBox="0 0 24 18" fill="none" xmlns="http://www.w3.org/2000/svg">
<path d="M11.9647 9.23294C12.5297 8.74391 12.9828 8.13906 13.2934 7.45944C13.604 6.77982 13.7647 6.04134 13.7647 5.29412C13.7647 3.89003 13.2069 2.54345 12.2141 1.55061C11.2213 0.557772 9.87467 1.89435e-07 8.47059 1.89435e-07C7.0665 1.89435e-07 5.71992 0.557772 4.72708 1.55061C3.73424 2.54345 3.17647 3.89003 3.17647 5.29412C3.17646 6.04134 3.3372 6.77982 3.64778 7.45944C3.95836 8.13906 4.41151 8.74391 4.97647 9.23294C3.49427 9.90411 2.23673 10.988 1.35421 12.3549C0.471701 13.7219 0.00155843 15.3141 0 16.9412C0 17.222 0.111554 17.4913 0.310122 17.6899C0.50869 17.8884 0.778006 18 1.05882 18C1.33964 18 1.60896 17.8884 1.80752 17.6899C2.00609 17.4913 2.11765 17.222 2.11765 16.9412C2.11765 15.2563 2.78697 13.6404 3.97838 12.449C5.16979 11.2576 6.78568 10.5882 8.47059 10.5882C10.1555 10.5882 11.7714 11.2576 12.9628 12.449C14.1542 13.6404 14.8235 15.2563 14.8235 16.9412C14.8235 17.222 14.9351 17.4913 15.1337 17.6899C15.3322 17.8884 15.6015 18 15.8824 18C16.1632 18 16.4325 17.8884 16.6311 17.6899C16.8296 17.4913 16.9412 17.222 16.9412 16.9412C16.9396 15.3141 16.4695 13.7219 15.587 12.3549C14.7044 10.988 13.4469 9.90411 11.9647 9.23294ZM8.47059 8.47059C7.84234 8.47059 7.2282 8.28429 6.70584 7.93526C6.18347 7.58622 5.77633 7.09012 5.53591 6.5097C5.29549 5.92928 5.23259 5.29059 5.35515 4.67442C5.47772 4.05824 5.78025 3.49225 6.22448 3.04801C6.66872 2.60378 7.23471 2.30125 7.85089 2.17868C8.46706 2.05612 9.10575 2.11902 9.68617 2.35944C10.2666 2.59986 10.7627 3.007 11.1117 3.52937C11.4608 4.05173 11.6471 4.66587 11.6471 5.29412C11.6471 6.13657 11.3124 6.94452 10.7167 7.54022C10.121 8.13593 9.31304 8.47059 8.47059 8.47059ZM18.7835 8.80941C19.4611 8.04635 19.9038 7.10371 20.0581 6.09495C20.2125 5.08619 20.072 4.05431 19.6536 3.12353C19.2352 2.19275 18.5567 1.40272 17.6998 0.848565C16.8429 0.294406 15.844 -0.000272753 14.8235 1.89435e-07C14.5427 1.89435e-07 14.2734 0.111554 14.0748 0.310122C13.8763 0.50869 13.7647 0.778006 13.7647 1.05882C13.7647 1.33964 13.8763 1.60896 14.0748 1.80752C14.2734 2.00609 14.5427 2.11765 14.8235 2.11765C15.666 2.11765 16.4739 2.45231 17.0696 3.04801C17.6653 3.64372 18 4.45167 18 5.29412C17.9985 5.85025 17.851 6.39625 17.5723 6.87751C17.2936 7.35876 16.8934 7.7584 16.4118 8.03647C16.2548 8.12702 16.1237 8.25635 16.031 8.41208C15.9383 8.56781 15.8871 8.74472 15.8824 8.92588C15.8779 9.10563 15.9193 9.28355 16.0027 9.44286C16.0861 9.60217 16.2086 9.73763 16.3588 9.83647L16.7718 10.1118L16.9094 10.1859C18.1857 10.7912 19.2624 11.7487 20.0128 12.9455C20.7632 14.1423 21.1559 15.5286 21.1447 16.9412C21.1447 17.222 21.2563 17.4913 21.4548 17.6899C21.6534 17.8884 21.9227 18 22.2035 18C22.4843 18 22.7537 17.8884 22.9522 17.6899C23.1508 17.4913 23.2624 17.222 23.2624 16.9412C23.271 15.3163 22.864 13.7163 22.0801 12.293C21.2962 10.8697 20.1614 9.67057 18.7835 8.80941Z" fill="#675EF5"/>
</svg>
