<svg xmlns="http://www.w3.org/2000/svg" width="24" height="18" fill="none"><path fill="#675EF5" d="M11.96 9.23a5.2 5.2 0 0 0 1.8-3.94A5.3 5.3 0 1 0 3.65 7.46a5.2 5.2 0 0 0 1.33 1.77A8.47 8.47 0 0 0 0 16.94a1.06 1.06 0 0 0 2.12 0 6.35 6.35 0 1 1 12.7 0 1.06 1.06 0 0 0 2.12 0 8.47 8.47 0 0 0-4.98-7.7Zm-3.49-.76a3.18 3.18 0 1 1 0-6.35 3.18 3.18 0 0 1 0 6.35Zm10.31.34A5.3 5.3 0 0 0 14.82 0a1.06 1.06 0 0 0 0 2.12 3.18 3.18 0 0 1 1.6 5.92 1.06 1.06 0 0 0-.06 1.8l.41.27.14.08a7.41 7.41 0 0 1 4.23 6.75 1.06 1.06 0 0 0 2.12 0 9.53 9.53 0 0 0-4.48-8.13Z"/></svg>