<svg xmlns="http://www.w3.org/2000/svg" width="20" height="20" fill="none"><path fill="#F5F4F3" d="M19 10a1 1 0 0 0-1 1v6a1 1 0 0 1-1 1H3a1 1 0 0 1-1-1V3a1 1 0 0 1 1-1h6a1 1 0 0 0 0-2H3a3 3 0 0 0-3 3v14a3 3 0 0 0 3 3h14a3 3 0 0 0 3-3v-6a1 1 0 0 0-1-1Zm-15 .76V15a1 1 0 0 0 1 1h4.24a1 1 0 0 0 .7-.29l6.93-6.93L19.7 6a1 1 0 0 0 0-1.42L15.47.3a1 1 0 0 0-1.42 0l-2.82 2.82-6.94 6.93a1 1 0 0 0-.3.71Zm10.76-8.34 2.82 2.82-1.41 1.42-2.83-2.83 1.42-1.41ZM6 11.17l5.93-5.93 2.83 2.83L8.83 14H6v-2.83Z"/></svg>