<svg width="22" height="20" viewBox="0 0 22 20" fill="none" xmlns="http://www.w3.org/2000/svg">
<path d="M18.9902 14.0025C18.3698 14.0057 17.7657 14.2013 17.2611 14.5623L14.8123 13.1129C14.9279 12.7542 14.9885 12.3802 14.9923 12.0034C14.9894 11.1192 14.6935 10.2609 14.151 9.56276C13.6085 8.86462 12.8498 8.36604 11.9938 8.145V5.82597C12.6607 5.59018 13.2227 5.1262 13.5806 4.51604C13.9385 3.90589 14.0692 3.18885 13.9496 2.49164C13.83 1.79444 13.4678 1.16197 12.927 0.706024C12.3862 0.250074 11.7016 0 10.9943 0C10.287 0 9.60245 0.250074 9.06166 0.706024C8.52087 1.16197 8.15866 1.79444 8.03905 2.49164C7.91944 3.18885 8.05013 3.90589 8.40802 4.51604C8.76591 5.1262 9.32796 5.59018 9.99483 5.82597V8.145C9.1388 8.36604 8.38018 8.86462 7.83764 9.56276C7.2951 10.2609 6.99926 11.1192 6.99638 12.0034C7.0001 12.3802 7.06075 12.7542 7.17629 13.1129L4.72756 14.5623C4.22297 14.2013 3.61884 14.0057 2.99845 14.0025C2.40541 14.0025 1.82569 14.1784 1.3326 14.5079C0.839509 14.8374 0.45519 15.3057 0.228245 15.8537C0.00129919 16.4016 -0.0580801 17.0046 0.0576157 17.5863C0.173312 18.168 0.458886 18.7023 0.878227 19.1217C1.29757 19.5411 1.83184 19.8267 2.41348 19.9424C2.99513 20.0581 3.59801 19.9987 4.14591 19.7717C4.6938 19.5448 5.1621 19.1604 5.49157 18.6673C5.82104 18.1741 5.9969 17.5944 5.9969 17.0013C5.9932 16.7305 5.95286 16.4615 5.87696 16.2016L8.17577 14.8322C8.92484 15.5769 9.93812 15.9949 10.9943 15.9949C12.0505 15.9949 13.0638 15.5769 13.8129 14.8322L16.1117 16.2016C15.9442 16.8069 15.971 17.4496 16.1883 18.0389C16.4057 18.6282 16.8025 19.1344 17.3229 19.486C17.8433 19.8376 18.4609 20.017 19.0887 19.9987C19.7165 19.9805 20.3227 19.7655 20.8217 19.3842C21.3208 19.003 21.6876 18.4746 21.8703 17.8737C22.053 17.2727 22.0424 16.6296 21.8401 16.035C21.6377 15.4404 21.2538 14.9244 20.7425 14.5597C20.2311 14.195 19.6182 14.0001 18.9902 14.0025ZM2.99845 18.0008C2.80077 18.0008 2.60753 17.9422 2.44317 17.8324C2.2788 17.7225 2.1507 17.5664 2.07505 17.3838C1.9994 17.2011 1.97961 17.0002 2.01817 16.8063C2.05674 16.6124 2.15193 16.4342 2.29171 16.2945C2.43149 16.1547 2.60958 16.0595 2.80346 16.0209C2.99734 15.9823 3.19831 16.0021 3.38094 16.0778C3.56357 16.1534 3.71967 16.2815 3.82949 16.4459C3.93932 16.6103 3.99793 16.8036 3.99793 17.0013C3.99793 17.2664 3.89263 17.5206 3.70519 17.7081C3.51775 17.8955 3.26353 18.0008 2.99845 18.0008ZM10.9943 2.00758C11.192 2.00758 11.3852 2.06621 11.5496 2.17604C11.714 2.28588 11.8421 2.44199 11.9177 2.62464C11.9934 2.80729 12.0132 3.00827 11.9746 3.20217C11.936 3.39607 11.8408 3.57418 11.7011 3.71397C11.5613 3.85376 11.3832 3.94896 11.1893 3.98753C10.9954 4.0261 10.7945 4.00631 10.6118 3.93065C10.4292 3.85499 10.2731 3.72688 10.1633 3.5625C10.0535 3.39812 9.99483 3.20486 9.99483 3.00716C9.99483 2.74206 10.1001 2.48781 10.2876 2.30035C10.475 2.11289 10.7292 2.00758 10.9943 2.00758ZM10.9943 14.0025C10.599 14.0025 10.2125 13.8853 9.88375 13.6656C9.55502 13.4459 9.29881 13.1337 9.14751 12.7684C8.99622 12.4031 8.95663 12.0012 9.03376 11.6134C9.11089 11.2256 9.30127 10.8693 9.58083 10.5898C9.8604 10.3102 10.2166 10.1198 10.6043 10.0426C10.9921 9.96549 11.394 10.0051 11.7593 10.1564C12.1246 10.3077 12.4367 10.5639 12.6564 10.8927C12.876 11.2215 12.9933 11.608 12.9933 12.0034C12.9933 12.5336 12.7827 13.0421 12.4078 13.417C12.0329 13.7919 11.5245 14.0025 10.9943 14.0025ZM18.9902 18.0008C18.7925 18.0008 18.5993 17.9422 18.4349 17.8324C18.2705 17.7225 18.1424 17.5664 18.0668 17.3838C17.9911 17.2011 17.9713 17.0002 18.0099 16.8063C18.0485 16.6124 18.1437 16.4342 18.2834 16.2945C18.4232 16.1547 18.6013 16.0595 18.7952 16.0209C18.9891 15.9823 19.19 16.0021 19.3727 16.0778C19.5553 16.1534 19.7114 16.2815 19.8212 16.4459C19.931 16.6103 19.9897 16.8036 19.9897 17.0013C19.9897 17.2664 19.8844 17.5206 19.6969 17.7081C19.5095 17.8955 19.2553 18.0008 18.9902 18.0008Z" fill="#F5F4F3"/>
</svg>
