<svg xmlns="http://www.w3.org/2000/svg" width="20" height="20" fill="none"><path fill="#F5F4F3" d="M19 16h-2v-3a1 1 0 0 0-1-1h-5V9.3l1.13.58a1 1 0 0 0 1.45-1.05l-.4-2.37 1.72-1.69a1 1 0 0 0 .26-1 1 1 0 0 0-.81-.68L12 2.72 10.9.56a1 1 0 0 0-1.8 0L8 2.72l-2.39.35a1 1 0 0 0-.81.68 1 1 0 0 0 .26 1l1.76 1.71-.4 2.37a1 1 0 0 0 1.45 1.05L9 9.3V12H4a1 1 0 0 0-1 1v3H1a1 1 0 0 0-1 1v2a1 1 0 1 0 2 0v-1h4v1a1 1 0 1 0 2 0v-2a1 1 0 0 0-1-1H5v-2h10v2h-2a1 1 0 0 0-1 1v2a1 1 0 0 0 2 0v-1h4v1a1 1 0 0 0 2 0v-2a1 1 0 0 0-1-1Zm-9-9.37a1 1 0 0 0-.47.12l-.8.42.15-.9a1 1 0 0 0-.29-.88l-.65-.64.9-.13a1 1 0 0 0 .76-.54l.4-.82.4.82a1 1 0 0 0 .76.54l.9.13-.65.64a1 1 0 0 0-.29.88l.15.9-.8-.42a1 1 0 0 0-.47-.12Z"/></svg>