<svg width="20" height="16" viewBox="0 0 20 16" fill="none" xmlns="http://www.w3.org/2000/svg">
<path d="M10.2867 7.93805C10.7724 7.5176 11.162 6.99758 11.429 6.41327C11.6961 5.82897 11.8343 5.19406 11.8343 4.55164C11.8343 3.34447 11.3547 2.18674 10.5011 1.33314C9.64751 0.479546 8.48979 1.62868e-07 7.28262 1.62868e-07C6.07545 1.62868e-07 4.91772 0.479546 4.06412 1.33314C3.21053 2.18674 2.73098 3.34447 2.73098 4.55164C2.73097 5.19406 2.86917 5.82897 3.13619 6.41327C3.40321 6.99758 3.79281 7.5176 4.27854 7.93805C3.00421 8.51509 1.92303 9.44695 1.16429 10.6222C0.405546 11.7974 0.00133987 13.1663 0 14.5652C0 14.8067 0.0959091 15.0382 0.266629 15.2089C0.437348 15.3797 0.668893 15.4756 0.910327 15.4756C1.15176 15.4756 1.38331 15.3797 1.55403 15.2089C1.72474 15.0382 1.82065 14.8067 1.82065 14.5652C1.82065 13.1166 2.39611 11.7274 3.42043 10.703C4.44474 9.67873 5.83401 9.10327 7.28262 9.10327C8.73122 9.10327 10.1205 9.67873 11.1448 10.703C12.1691 11.7274 12.7446 13.1166 12.7446 14.5652C12.7446 14.8067 12.8405 15.0382 13.0112 15.2089C13.1819 15.3797 13.4135 15.4756 13.6549 15.4756C13.8963 15.4756 14.1279 15.3797 14.2986 15.2089C14.4693 15.0382 14.5652 14.8067 14.5652 14.5652C14.5639 13.1663 14.1597 11.7974 13.4009 10.6222C12.6422 9.44695 11.561 8.51509 10.2867 7.93805ZM7.28262 7.28262C6.74248 7.28262 6.21447 7.12245 5.76536 6.82236C5.31626 6.52228 4.96622 6.09576 4.75952 5.59674C4.55282 5.09771 4.49873 4.54861 4.60411 4.01885C4.70949 3.48909 4.96959 3.00247 5.35152 2.62054C5.73346 2.23861 6.22007 1.97851 6.74983 1.87313C7.27959 1.76775 7.8287 1.82184 8.32772 2.02854C8.82674 2.23524 9.25326 2.58528 9.55334 3.03438C9.85343 3.48349 10.0136 4.0115 10.0136 4.55164C10.0136 5.27594 9.72587 5.97057 9.21371 6.48273C8.70155 6.99489 8.00692 7.28262 7.28262 7.28262ZM16.1492 7.57392C16.7318 6.91788 17.1123 6.10743 17.2451 5.24015C17.3778 4.37287 17.257 3.48571 16.8973 2.68546C16.5376 1.88522 15.9542 1.206 15.2175 0.729557C14.4807 0.253116 13.622 -0.0002345 12.7446 1.62868e-07C12.5031 1.62868e-07 12.2716 0.0959093 12.1009 0.266629C11.9302 0.437348 11.8343 0.668894 11.8343 0.910327C11.8343 1.15176 11.9302 1.38331 12.1009 1.55403C12.2716 1.72474 12.5031 1.82065 12.7446 1.82065C13.4689 1.82065 14.1635 2.10838 14.6757 2.62054C15.1878 3.1327 15.4756 3.82733 15.4756 4.55164C15.4743 5.02978 15.3475 5.4992 15.1078 5.91296C14.8682 6.32672 14.5242 6.67031 14.1101 6.90938C13.9751 6.98723 13.8624 7.09842 13.7827 7.23231C13.703 7.3662 13.659 7.5183 13.6549 7.67406C13.6511 7.8286 13.6867 7.98156 13.7584 8.11853C13.83 8.2555 13.9354 8.37196 14.0646 8.45694L14.4196 8.69362L14.5379 8.75735C15.6352 9.2778 16.561 10.101 17.2061 11.1299C17.8512 12.1589 18.1888 13.3508 18.1792 14.5652C18.1792 14.8067 18.2751 15.0382 18.4459 15.2089C18.6166 15.3797 18.8481 15.4756 19.0896 15.4756C19.331 15.4756 19.5625 15.3797 19.7333 15.2089C19.904 15.0382 19.9999 14.8067 19.9999 14.5652C20.0073 13.1683 19.6574 11.7926 18.9835 10.569C18.3095 9.3453 17.3339 8.3143 16.1492 7.57392Z" fill="#F5F4F3"/>
</svg>
