<svg xmlns="http://www.w3.org/2000/svg" width="20" height="16" fill="none"><path fill="#F5F4F3" d="M10.29 7.94a4.48 4.48 0 0 0 .21-6.6A4.55 4.55 0 0 0 3.14 6.4c.26.59.65 1.1 1.14 1.53A7.28 7.28 0 0 0 0 14.57a.91.91 0 1 0 1.82 0 5.46 5.46 0 0 1 10.92 0 .91.91 0 1 0 1.83 0 7.28 7.28 0 0 0-4.28-6.63Zm-3-.66a2.73 2.73 0 1 1 0-5.46 2.73 2.73 0 0 1 0 5.46Zm8.86.3A4.55 4.55 0 0 0 12.75 0a.91.91 0 1 0 0 1.82 2.73 2.73 0 0 1 1.36 5.09.91.91 0 0 0-.05 1.55l.36.23.12.07a6.37 6.37 0 0 1 3.64 5.8.91.91 0 1 0 1.82 0 8.2 8.2 0 0 0-3.85-6.99Z"/></svg>