<svg xmlns="http://www.w3.org/2000/svg" width="24" height="24" fill="none"><path fill="#F5F4F3" d="M7.42 2.38H1.2A1.2 1.2 0 0 0 0 3.58a1.2 1.2 0 0 0 1.2 1.2h6.22a3.6 3.6 0 0 0 6.76 0h8.62a1.2 1.2 0 0 0 1.2-1.2 1.2 1.2 0 0 0-1.2-1.2h-8.62a3.6 3.6 0 0 0-6.76 0ZM12 3.58a1.2 1.2 0 0 1-1.43 1.18 1.2 1.2 0 0 1-.88-1.64 1.2 1.2 0 0 1 2.31.46Zm2.62 7.22H1.2A1.2 1.2 0 0 0 0 12a1.2 1.2 0 0 0 1.2 1.2h13.42a3.6 3.6 0 0 0 6.76 0h1.42A1.2 1.2 0 0 0 24 12a1.2 1.2 0 0 0-1.2-1.2h-1.42a3.6 3.6 0 0 0-6.76 0ZM19.2 12a1.2 1.2 0 0 1-1.43 1.18 1.2 1.2 0 0 1-.88-1.64 1.2 1.2 0 0 1 1.96-.39c.22.22.35.53.35.85ZM5.02 19.22H1.2a1.2 1.2 0 0 0-1.2 1.2 1.2 1.2 0 0 0 1.2 1.2h3.82a3.6 3.6 0 0 0 6.76 0H22.8a1.2 1.2 0 0 0 1.2-1.2 1.2 1.2 0 0 0-1.2-1.2H11.78a3.6 3.6 0 0 0-6.76 0Zm4.58 1.2a1.2 1.2 0 0 1-1.43 1.18 1.2 1.2 0 0 1-.88-1.64 1.2 1.2 0 0 1 2.31.46Z"/></svg>