<svg xmlns="http://www.w3.org/2000/svg" width="24" height="24" fill="none"><path fill="#F5F4F3" d="M16.46 12.85A7.2 7.2 0 0 0 11.98 0a7.26 7.26 0 0 0-6.84 4.84 7.16 7.16 0 0 0 2.37 8.01A12.05 12.05 0 0 0 0 22.66 1.2 1.2 0 0 0 1.08 24a1.22 1.22 0 0 0 1.34-1.06 9.58 9.58 0 0 1 3.16-6.09 9.68 9.68 0 0 1 16.01 6.09 1.2 1.2 0 0 0 1.2 1.06h.14A1.2 1.2 0 0 0 24 22.67a11.96 11.96 0 0 0-7.53-9.82ZM11.98 12a4.84 4.84 0 0 1-4.45-2.96 4.77 4.77 0 0 1 3.51-6.54A4.85 4.85 0 0 1 16 4.54 4.78 4.78 0 0 1 12 12Z"/></svg>