<svg width="16" height="16" viewBox="0 0 16 16" fill="none" xmlns="http://www.w3.org/2000/svg">
<path d="M8.01126 0C6.96216 0 5.92334 0.206635 4.9541 0.608107C3.98486 1.00958 3.10419 1.59802 2.36237 2.33985C0.864186 3.83803 0.0225174 5.87 0.0225174 7.98874C0.0155335 9.83345 0.654261 11.6225 1.82797 13.0456L0.230225 14.6434C0.119375 14.7557 0.0442836 14.8984 0.0144264 15.0533C-0.0154309 15.2083 0.00128371 15.3687 0.062461 15.5141C0.128814 15.6579 0.236379 15.7787 0.371503 15.8612C0.506627 15.9437 0.663215 15.9841 0.821391 15.9775H8.01126C10.13 15.9775 12.162 15.1358 13.6602 13.6376C15.1583 12.1395 16 10.1075 16 7.98874C16 5.87 15.1583 3.83803 13.6602 2.33985C12.162 0.841669 10.13 0 8.01126 0ZM8.01126 14.3797H2.74668L3.48963 13.6368C3.63842 13.4871 3.72194 13.2846 3.72194 13.0736C3.72194 12.8625 3.63842 12.66 3.48963 12.5104C2.44357 11.4655 1.79216 10.0902 1.64638 8.61889C1.5006 7.14757 1.86947 5.67121 2.69014 4.44136C3.51081 3.2115 4.73251 2.30424 6.1471 1.87414C7.56168 1.44403 9.08164 1.5177 10.448 2.0826C11.8144 2.64749 12.9426 3.66865 13.6405 4.97211C14.3384 6.27556 14.5627 7.78067 14.2753 9.231C13.9879 10.6813 13.2066 11.9871 12.0644 12.926C10.9222 13.8648 9.48979 14.3786 8.01126 14.3797Z" fill="#505259"/>
</svg>
