<svg width="20" height="16" viewBox="0 0 20 16" fill="none" xmlns="http://www.w3.org/2000/svg">
<path d="M19.9165 7.6C17.8972 2.91 14.0986 0 10 0C5.90143 0 2.10275 2.91 0.0834557 7.6C0.0284116 7.72617 0 7.86234 0 8C0 8.13766 0.0284116 8.27383 0.0834557 8.4C2.10275 13.09 5.90143 16 10 16C14.0986 16 17.8972 13.09 19.9165 8.4C19.9716 8.27383 20 8.13766 20 8C20 7.86234 19.9716 7.72617 19.9165 7.6ZM10 14C6.8311 14 3.83215 11.71 2.10275 8C3.83215 4.29 6.8311 2 10 2C13.1689 2 16.1679 4.29 17.8972 8C16.1679 11.71 13.1689 14 10 14ZM10 4C9.20915 4 8.43606 4.2346 7.77849 4.67412C7.12093 5.11365 6.60841 5.73836 6.30577 6.46927C6.00312 7.20017 5.92394 8.00444 6.07823 8.78036C6.23251 9.55628 6.61334 10.269 7.17256 10.8284C7.73177 11.3878 8.44426 11.7688 9.21991 11.9231C9.99556 12.0775 10.7996 11.9983 11.5302 11.6955C12.2609 11.3928 12.8853 10.8801 13.3247 10.2223C13.7641 9.56448 13.9986 8.79113 13.9986 8C13.9986 6.93913 13.5773 5.92172 12.8274 5.17157C12.0776 4.42143 11.0605 4 10 4ZM10 10C9.60458 10 9.21803 9.8827 8.88925 9.66294C8.56046 9.44318 8.30421 9.13082 8.15288 8.76537C8.00156 8.39991 7.96197 7.99778 8.03911 7.60982C8.11626 7.22186 8.30667 6.86549 8.58628 6.58579C8.86589 6.30608 9.22213 6.1156 9.60996 6.03843C9.99778 5.96126 10.3998 6.00087 10.7651 6.15224C11.1304 6.30362 11.4427 6.55996 11.6624 6.88886C11.882 7.21776 11.9993 7.60444 11.9993 8C11.9993 8.53043 11.7887 9.03914 11.4137 9.41421C11.0388 9.78929 10.5302 10 10 10Z" fill="#505259"/>
</svg>
