<svg width="16" height="15" viewBox="0 0 16 15" fill="none" xmlns="http://www.w3.org/2000/svg">
<path d="M15.7658 6.6343L9.3657 0.234232C9.25382 0.122383 9.11128 0.0462173 8.95612 0.015363C8.80096 -0.0154914 8.64013 0.000351165 8.49397 0.0608878C8.34781 0.121425 8.22287 0.223937 8.13496 0.355466C8.04706 0.486996 8.00012 0.641636 8.00009 0.799838V3.63587C5.81469 3.8381 3.78342 4.84857 2.30378 6.46952C0.824132 8.09047 0.00261741 10.2052 0 12.4V13.6C0.000126286 13.766 0.0519283 13.9279 0.148221 14.0632C0.244513 14.1985 0.380524 14.3005 0.537386 14.355C0.694249 14.4096 0.864189 14.4139 1.02363 14.3675C1.18308 14.3211 1.32413 14.2262 1.42722 14.096C2.21098 13.1639 3.17264 12.3974 4.256 11.8413C5.33936 11.2851 6.5227 10.9504 7.73688 10.8567C7.77688 10.8519 7.87688 10.8439 8.00009 10.8359V13.6C8.00012 13.7582 8.04706 13.9128 8.13496 14.0443C8.22287 14.1759 8.34781 14.2784 8.49397 14.3389C8.64013 14.3995 8.80096 14.4153 8.95612 14.3844C9.11128 14.3536 9.25382 14.2774 9.3657 14.1656L15.7658 7.76551C15.9157 7.61549 16 7.41204 16 7.19991C16 6.98777 15.9157 6.78432 15.7658 6.6343ZM9.6001 11.6688V9.99994C9.6001 9.78776 9.51582 9.58428 9.36579 9.43425C9.21575 9.28421 9.01227 9.19993 8.80009 9.19993C8.59609 9.19993 7.76328 9.23993 7.55048 9.26793C5.39435 9.46659 3.34197 10.2858 1.64162 11.6264C1.83461 9.86188 2.67166 8.23059 3.99249 7.04483C5.31331 5.85907 7.0251 5.20216 8.80009 5.19988C9.01227 5.19988 9.21575 5.1156 9.36579 4.96557C9.51582 4.81554 9.6001 4.61205 9.6001 4.39988V2.73106L14.069 7.19991L9.6001 11.6688Z" fill="#505259"/>
</svg>
