<svg xmlns="http://www.w3.org/2000/svg" width="25" height="25" viewBox="0 0 13 13" fill="none">
<path d="M8.57668 3.86253C7.31293 2.59877 5.26398 2.59877 4.00022 3.86253C2.73647 5.12628 2.73647 7.17523 4.00022 8.43899C5.26398 9.70274 7.31293 9.70274 8.57668 8.43899C9.84044 7.17523 9.84044 5.12628 8.57668 3.86253ZM3.26365 3.12596C4.9342 1.45541 7.6427 1.45541 9.31325 3.12596C10.8591 4.67184 10.9745 7.10654 9.65934 8.78508L11.8082 10.934C12.0116 11.1374 12.0116 11.4671 11.8082 11.6705C11.6048 11.8739 11.2751 11.8739 11.0717 11.6705L8.92277 9.52165C7.24423 10.8368 4.80954 10.7214 3.26365 9.17556C1.5931 7.50501 1.5931 4.79651 3.26365 3.12596Z" fill="#BDBDBD"/>
</svg>