<svg xmlns="http://www.w3.org/2000/svg" width="30" height="30" viewBox="0 0 14 14" fill="#bdbdbd">
<g clip-path="url(#clip0_276_415)">
<path d="M6.81723 1.70452C3.99356 1.70452 1.70452 3.99356 1.70452 6.81723C1.70452 9.6409 3.99356 11.9299 6.81723 11.9299C7.13097 11.9299 7.38531 12.1843 7.38531 12.498C7.38531 12.8118 7.13097 13.0661 6.81723 13.0661C3.36607 13.0661 0.568359 10.2684 0.568359 6.81723C0.568359 3.36607 3.36607 0.568359 6.81723 0.568359C10.2684 0.568359 13.0661 3.36607 13.0661 6.81723C13.0661 7.48091 12.9952 8.289 12.6962 8.95095C12.5435 9.28899 12.3208 9.61242 11.9956 9.85143C11.6641 10.0951 11.26 10.2257 10.7938 10.2257C10.3157 10.2257 9.90728 10.079 9.57777 9.82058C9.25669 9.56875 9.03824 9.23313 8.88864 8.89118C8.87552 8.86119 8.86284 8.83095 8.85059 8.80048C8.33474 9.32929 7.61433 9.65762 6.81723 9.65762C5.24852 9.65762 3.97683 8.38594 3.97683 6.81723C3.97683 5.24852 5.24852 3.97683 6.81723 3.97683C7.48123 3.97683 8.09202 4.20468 8.57568 4.58645C8.66666 4.39401 8.86255 4.26087 9.08955 4.26087C9.40329 4.26087 9.65762 4.51521 9.65762 4.82895L9.65762 6.81723C9.65762 7.35468 9.72713 7.97315 9.92954 8.43579C10.0285 8.66192 10.1473 8.82337 10.2789 8.92659C10.4021 9.0232 10.5618 9.08955 10.7938 9.08955C11.0377 9.08955 11.2017 9.02497 11.3228 8.93594C11.4503 8.84224 11.5649 8.69541 11.6608 8.48324C11.8588 8.04477 11.9299 7.43266 11.9299 6.81723C11.9299 3.99356 9.6409 1.70452 6.81723 1.70452ZM8.52147 6.81723C8.52147 5.876 7.75845 5.11299 6.81723 5.11299C5.876 5.11299 5.11299 5.876 5.11299 6.81723C5.11299 7.75845 5.876 8.52147 6.81723 8.52147C7.75845 8.52147 8.52147 7.75845 8.52147 6.81723Z" fill="#bdbdbd"/>
</g>
<defs>
<clipPath id="clip0_276_415">
<rect width="13.6339" height="13.6339" fill="#bdbdbd"/>
</clipPath>
</defs>
</svg>