<svg xmlns="http://www.w3.org/2000/svg" width="30" height="30" viewBox="0 0 12 13"  fill="#bdbdbd">
	<path d="M2.452 2.66392C2.452 1.40895 3.46935 0.391602 4.72432 0.391602L6.99664 0.391602C8.2516 0.391602 9.26895 1.40895 9.26895 2.66392L9.26895 3.80008L9.83703 3.80008C10.7783 3.80008 11.5413 4.56309 11.5413 5.50431L11.5413 11.1851C11.5413 12.1263 10.7783 12.8893 9.83703 12.8893L1.88392 12.8893C0.9427 12.8893 0.179687 12.1263 0.179687 11.1851L0.179687 5.50431C0.179687 4.56309 0.942701 3.80008 1.88392 3.80008L2.452 3.80008L2.452 2.66392ZM8.13279 2.66392C8.13279 2.03644 7.62412 1.52776 6.99664 1.52776L4.72432 1.52776C4.09684 1.52776 3.58816 2.03644 3.58816 2.66392L3.58816 3.80008L8.13279 3.80008L8.13279 2.66392ZM1.88392 4.93623C1.57018 4.93623 1.31585 5.19057 1.31585 5.50431L1.31585 11.1851C1.31585 11.4988 1.57018 11.7532 1.88392 11.7532L9.83703 11.7532C10.1508 11.7532 10.4051 11.4988 10.4051 11.1851L10.4051 5.50431C10.4051 5.19057 10.1508 4.93623 9.83703 4.93623L1.88392 4.93623ZM5.86048 9.48087C6.64483 9.48087 7.28068 8.84502 7.28068 8.06067C7.28068 7.27632 6.64483 6.64047 5.86048 6.64047C5.07612 6.64047 4.44028 7.27632 4.44028 8.06067C4.44028 8.84502 5.07612 9.48087 5.86048 9.48087Z" fill="#bdbdbd"/>
</svg>