<svg xmlns="http://www.w3.org/2000/svg" width="18" height="18" viewBox="0 0 18 18" fill="none">
<path d="M8.64467 7.85955L8.64467 10.3101L11.9867 10.3101C11.6756 11.8674 10.3736 12.7621 8.64467 12.7621C6.6309 12.7339 5.01297 11.0637 5.01297 9.01311C5.01297 6.96254 6.6309 5.29236 8.64467 5.26414C9.48172 5.26312 10.293 5.55889 10.9392 6.10064L12.7525 4.25438C10.6725 2.39255 7.63481 2.15308 5.29814 3.66674C2.96148 5.18039 1.88739 8.08338 2.66238 10.7906C3.43737 13.4978 5.87518 15.3585 8.64467 15.3568C11.76 15.3568 14.5929 13.0497 14.5929 9.01275C14.5881 8.62407 14.5414 8.23711 14.4535 7.85884L8.64467 7.85955Z" fill="white"/>
</svg>