<svg width="16" height="15" viewBox="0 0 16 15" fill="none" xmlns="http://www.w3.org/2000/svg">
<g clip-path="url(#clip0_95_2)">
<path d="M14.5401 1.50011C13.6906 0.650791 12.5653 0.133495 11.3676 0.0417874C10.1699 -0.0499201 8.9789 0.290016 8.01006 1.00011C6.99106 0.261141 5.73162 -0.0680452 4.48135 0.077794C3.23108 0.223633 2.08122 0.833853 1.25966 1.78752C0.438098 2.74119 0.00479064 3.9687 0.0456116 5.22678C0.0864325 6.48487 0.598403 7.68171 1.48006 8.58011L6.45006 13.5501C6.86557 13.9605 7.42605 14.1906 8.01006 14.1906C8.59406 14.1906 9.15455 13.9605 9.57006 13.5501L14.5401 8.58011C15.4756 7.63948 16.0007 6.36676 16.0007 5.04011C16.0007 3.71346 15.4756 2.44075 14.5401 1.50011Z" fill="#675EF5"/>
</g>
<defs>
<clipPath id="clip0_95_2">
<rect width="16" height="15" fill="white"/>
</clipPath>
</defs>
</svg>
