<svg xmlns="http://www.w3.org/2000/svg" width="30" height="30" viewBox="0 0 14 14" fill="#bdbdbd">
<g clip-path="url(#clip0_276_518)">
<path d="M5.70417 0.570312C4.75907 0.570312 3.99292 1.33647 3.99292 2.28156C3.99292 2.48157 4.02723 2.67356 4.09029 2.85198H1.71125C0.766153 2.85198 0 3.61813 0 4.56323C0 5.50833 0.766153 6.27448 1.71125 6.27448L1.71125 11.4082C1.71125 12.3533 2.4774 13.1195 3.4225 13.1195H6.845H10.2675C11.2126 13.1195 11.9787 12.3533 11.9787 11.4082V6.27448C12.9238 6.27448 13.69 5.50833 13.69 4.56323C13.69 3.61813 12.9238 2.85198 11.9787 2.85198H9.59971C9.66277 2.67356 9.69708 2.48157 9.69708 2.28156C9.69708 1.33647 8.93093 0.570312 7.98583 0.570312C7.54755 0.570312 7.14775 0.73508 6.845 1.00605C6.54225 0.73508 6.14245 0.570312 5.70417 0.570312ZM7.41542 11.9786V6.27448H10.8379V11.4082C10.8379 11.7233 10.5825 11.9786 10.2675 11.9786H7.41542ZM6.27458 6.27448V11.9786H3.4225C3.10747 11.9786 2.85208 11.7233 2.85208 11.4082V6.27448H6.27458ZM7.41542 5.13365V3.99281H11.9787C12.2938 3.99281 12.5492 4.2482 12.5492 4.56323C12.5492 4.87826 12.2938 5.13365 11.9787 5.13365H7.41542ZM6.27458 3.99281V5.13365H1.71125C1.39622 5.13365 1.14083 4.87826 1.14083 4.56323C1.14083 4.2482 1.39622 3.99281 1.71125 3.99281H6.27458ZM7.41542 2.85198V2.28156C7.41542 1.96653 7.6708 1.71115 7.98583 1.71115C8.30087 1.71115 8.55625 1.96653 8.55625 2.28156C8.55625 2.5966 8.30087 2.85198 7.98583 2.85198H7.41542ZM6.27458 2.85198H5.70417C5.38913 2.85198 5.13375 2.5966 5.13375 2.28156C5.13375 1.96653 5.38913 1.71115 5.70417 1.71115C6.0192 1.71115 6.27458 1.96653 6.27458 2.28156V2.85198Z" fill="#BDBDBD"/>
</g>
<defs>
<clipPath id="clip0_276_518">
<rect width="13.69" height="13.69" fill="white"/>
</clipPath>
</defs>
</svg>