<svg xmlns="http://www.w3.org/2000/svg" width="30" height="30" viewBox="0 0 14 14" fill="inherit">
<path d="M5.13333 3.4224C5.13333 2.4773 5.89949 1.71115 6.84458 1.71115C7.78968 1.71115 8.55583 2.4773 8.55583 3.4224C8.55583 4.36749 7.78968 5.13365 6.84458 5.13365C5.89949 5.13365 5.13333 4.36749 5.13333 3.4224ZM6.84458 0.570312C5.26942 0.570312 3.9925 1.84723 3.9925 3.4224C3.9925 4.99756 5.26942 6.27448 6.84458 6.27448C8.41974 6.27448 9.69667 4.99756 9.69667 3.4224C9.69667 1.84723 8.41974 0.570312 6.84458 0.570312ZM5.13333 7.41531C3.55817 7.41531 2.28125 8.69223 2.28125 10.2674V11.9786C2.28125 12.2937 2.53663 12.5491 2.85167 12.5491C3.1667 12.5491 3.42208 12.2937 3.42208 11.9786V10.2674C3.42208 9.3223 4.18824 8.55615 5.13333 8.55615H8.55583C9.50093 8.55615 10.2671 9.3223 10.2671 10.2674V11.9786C10.2671 12.2937 10.5225 12.5491 10.8375 12.5491C11.1525 12.5491 11.4079 12.2937 11.4079 11.9786V10.2674C11.4079 8.69223 10.131 7.41531 8.55583 7.41531H5.13333Z" fill="#BDBDBD"/>
</svg>